<svg id="svg" version="1.1" xmlns="http://www.w3.org/2000/svg" xmlns:xlink="http://www.w3.org/1999/xlink" width="400" height="256.6438876233865" viewBox="0, 0, 400,256.6438876233865"><g id="svgg"><path id="path0" d="M6.290 0.170 C 4.585 0.537,3.126 1.170,2.567 1.786 C 2.214 2.175,1.769 2.543,1.578 2.603 C 1.388 2.664,0.959 3.345,0.626 4.117 L 0.021 5.520 0.010 66.721 L 0.000 127.922 25.610 127.748 C 47.526 127.598,151.984 127.100,163.427 127.089 L 167.291 127.086 167.593 124.198 C 169.490 106.085,187.281 92.758,205.777 95.597 C 220.820 97.905,232.985 111.003,233.951 125.931 L 234.018 126.958 292.940 127.113 C 325.347 127.198,362.693 127.359,375.931 127.471 L 400.000 127.676 399.996 66.341 C 399.993 11.939,399.948 4.879,399.599 3.878 C 399.173 2.653,397.479 0.805,396.329 0.309 C 395.637 0.011,7.672 -0.127,6.290 0.170 M196.277 97.986 C 182.788 100.162,172.425 110.364,170.303 123.555 C 169.671 127.488,168.635 127.104,179.641 127.025 L 189.077 126.958 189.368 125.646 C 191.947 114.029,209.590 114.303,212.019 125.998 L 212.218 126.958 221.804 127.025 L 231.389 127.092 231.219 125.485 C 229.842 112.471,221.233 102.345,208.535 98.804 C 205.802 98.041,198.819 97.575,196.277 97.986 M197.719 119.884 C 188.366 123.353,190.597 137.187,200.513 137.211 C 210.054 137.234,213.026 124.646,204.493 120.356 C 202.431 119.319,199.746 119.132,197.719 119.884 M166.565 129.541 C 166.505 129.601,150.637 129.669,131.303 129.692 C 98.603 129.731,76.337 129.856,21.630 130.307 L 0.000 130.486 0.000 190.648 C 0.000 234.600,0.078 251.004,0.289 251.528 C 0.932 253.129,1.201 253.552,2.247 254.602 C 2.847 255.206,3.714 255.905,4.172 256.155 C 5.179 256.706,393.275 257.035,395.174 256.487 C 395.713 256.331,396.657 255.685,397.356 254.993 C 398.444 253.916,398.891 253.156,399.771 250.887 C 399.903 250.548,400.000 224.763,400.000 190.263 L 400.000 130.229 380.552 130.069 C 369.856 129.981,332.481 129.838,297.497 129.750 L 233.890 129.591 233.890 130.859 C 233.890 133.768,232.577 138.672,230.818 142.335 C 219.276 166.368,186.086 168.160,172.079 145.507 C 169.475 141.296,167.394 134.730,167.394 130.723 C 167.394 129.827,166.934 129.172,166.565 129.541 M169.963 130.359 C 169.982 143.526,182.224 156.694,196.260 158.646 C 213.873 161.096,231.169 147.076,231.317 130.231 L 231.322 129.653 221.727 129.653 L 212.132 129.653 211.965 130.700 C 211.567 133.190,209.210 136.499,206.679 138.124 C 200.261 142.242,190.955 138.446,189.410 131.080 L 189.111 129.653 179.536 129.653 L 169.961 129.653 169.963 130.359 " stroke="none" fill="#141414" fill-rule="evenodd"></path><path id="path1" d="M196.406 95.425 C 180.709 97.988,169.126 109.555,167.593 124.198 L 167.291 127.086 163.427 127.089 C 151.984 127.100,47.526 127.598,25.610 127.748 L 0.000 127.922 0.000 129.173 L 0.000 130.424 3.738 130.424 C 10.085 130.424,77.400 129.940,91.656 129.791 C 101.239 129.692,157.107 129.588,167.073 129.651 C 167.277 129.653,167.394 130.034,167.394 130.695 C 167.394 134.730,169.466 141.283,172.079 145.507 C 186.086 168.160,219.276 166.368,230.818 142.335 C 232.577 138.672,233.890 133.768,233.890 130.859 L 233.890 129.591 297.497 129.750 C 332.481 129.838,369.856 129.981,380.552 130.069 L 400.000 130.229 400.000 128.952 L 400.000 127.676 375.931 127.471 C 362.693 127.359,325.347 127.198,292.940 127.113 L 234.018 126.958 233.951 125.931 C 232.762 107.554,214.248 92.512,196.406 95.425 M208.535 98.804 C 221.233 102.345,229.842 112.471,231.219 125.485 L 231.389 127.092 221.804 127.025 L 212.218 126.958 212.019 125.998 C 209.590 114.303,191.947 114.029,189.368 125.646 L 189.077 126.958 179.641 127.025 C 168.635 127.104,169.671 127.488,170.303 123.555 C 172.425 110.364,182.788 100.162,196.277 97.986 C 198.819 97.575,205.802 98.041,208.535 98.804 M204.493 120.356 C 213.026 124.646,210.054 137.234,200.513 137.211 C 194.343 137.196,190.267 131.264,192.277 125.223 C 193.899 120.350,199.802 117.998,204.493 120.356 M189.410 131.080 C 190.955 138.446,200.261 142.242,206.679 138.124 C 209.210 136.499,211.567 133.190,211.965 130.700 L 212.132 129.653 221.727 129.653 L 231.322 129.653 231.317 130.231 C 231.169 147.076,213.873 161.096,196.260 158.646 C 182.224 156.694,169.982 143.526,169.963 130.359 L 169.961 129.653 179.536 129.653 L 189.111 129.653 189.410 131.080 " stroke="none" fill="#f6f6f6" fill-rule="evenodd"></path></g></svg>