<svg id="svg" version="1.1" xmlns="http://www.w3.org/2000/svg" xmlns:xlink="http://www.w3.org/1999/xlink" width="400" height="256.6438876233865" viewBox="0, 0, 400,256.6438876233865"><g id="svgg"><path id="path0" d="M5.216 0.579 C 3.406 1.204,1.477 2.886,0.582 4.620 C 0.014 5.719,0.000 7.242,0.000 66.822 L -0.000 127.898 31.815 127.728 C 49.313 127.635,67.935 127.491,73.197 127.408 C 78.459 127.326,101.420 127.249,124.222 127.237 C 147.024 127.226,166.041 127.144,166.482 127.057 C 167.239 126.906,167.296 126.768,167.498 124.617 C 169.160 106.884,186.457 93.146,204.357 95.343 C 219.866 97.247,232.463 109.846,233.762 124.753 L 233.954 126.955 278.784 126.961 C 303.441 126.963,325.596 127.029,328.018 127.107 C 330.440 127.185,347.627 127.321,366.211 127.409 L 400.000 127.570 400.000 66.404 C 400.000 0.490,400.093 4.396,398.471 2.334 C 398.101 1.863,397.271 1.146,396.627 0.739 L 395.456 0.000 201.145 0.010 C 13.275 0.020,6.780 0.038,5.216 0.579 M194.837 98.226 C 181.840 100.745,171.134 112.164,170.181 124.524 L 169.993 126.955 179.606 126.955 C 188.954 126.955,189.218 126.939,189.218 126.359 C 189.218 122.596,193.904 117.940,198.688 116.951 C 204.279 115.795,211.000 120.320,211.896 125.842 L 212.076 126.955 221.778 126.955 L 231.479 126.955 231.268 125.209 C 229.118 107.353,212.240 94.853,194.837 98.226 M197.617 119.838 C 192.740 121.397,190.271 127.609,192.657 132.317 C 196.853 140.596,209.567 137.493,209.567 128.189 C 209.567 122.316,203.384 117.995,197.617 119.838 M110.402 129.731 C 79.833 129.840,42.487 130.029,27.411 130.150 L 0.000 130.370 0.000 190.433 C 0.000 255.094,-0.090 251.341,1.515 253.382 C 1.878 253.843,2.304 254.140,2.462 254.043 C 2.619 253.945,2.711 254.032,2.665 254.235 C 2.619 254.439,3.174 255.030,3.899 255.549 L 5.216 256.492 199.887 256.569 C 367.433 256.635,394.673 256.586,395.381 256.216 C 396.788 255.479,398.147 253.910,399.092 251.930 L 400.000 250.027 400.000 190.162 C 400.000 133.354,399.973 130.296,399.468 130.285 C 385.927 130.005,329.846 129.707,288.535 129.695 L 234.017 129.680 233.811 131.583 C 231.528 152.725,210.160 166.484,190.067 159.752 C 177.740 155.623,168.832 144.569,167.429 131.663 C 167.229 129.817,167.118 129.537,166.591 129.535 C 166.257 129.534,140.972 129.622,110.402 129.731 M169.910 130.372 C 169.988 130.748,170.141 131.875,170.250 132.878 C 170.903 138.887,174.591 145.846,179.606 150.530 C 198.145 167.849,228.234 156.639,231.265 131.283 L 231.456 129.689 221.766 129.689 L 212.076 129.689 211.913 130.695 C 210.021 142.357,191.544 142.448,189.360 130.806 L 189.150 129.689 179.459 129.689 L 169.768 129.689 169.910 130.372 " stroke="none" fill="#000000" fill-rule="evenodd"></path></g></svg>